<svg width="64" height="64" viewBox="0 0 64 64" fill="none" xmlns="http://www.w3.org/2000/svg">
    <rect width="64" height="64" rx="32" fill="#CEEA7E"/>
    <g clip-path="url(#clip0_601_3249)">
        <path d="M32 45.3337C24.6534 45.3337 18.6667 39.347 18.6667 32.0003C18.6667 24.6537 24.6534 18.667 32 18.667C39.3467 18.667 45.3334 24.0537 45.3334 30.667C45.3334 35.0803 41.7467 38.667 37.3334 38.667H34.9734C34.6 38.667 34.3067 38.9603 34.3067 39.3337C34.3067 39.4937 34.3734 39.6403 34.48 39.7737C35.0267 40.4003 35.3334 41.187 35.3334 42.0003C35.3334 43.8403 33.84 45.3337 32 45.3337ZM32 21.3337C26.12 21.3337 21.3334 26.1203 21.3334 32.0003C21.3334 37.8803 26.12 42.667 32 42.667C32.3734 42.667 32.6667 42.3737 32.6667 42.0003C32.6667 41.787 32.56 41.627 32.48 41.5337C31.9334 40.9203 31.64 40.1337 31.64 39.3337C31.64 37.4937 33.1334 36.0003 34.9734 36.0003H37.3334C40.28 36.0003 42.6667 33.6137 42.6667 30.667C42.6667 25.5203 37.88 21.3337 32 21.3337Z" fill="#0F1319"/>
        <path d="M24.6667 33.334C25.7713 33.334 26.6667 32.4386 26.6667 31.334C26.6667 30.2294 25.7713 29.334 24.6667 29.334C23.5621 29.334 22.6667 30.2294 22.6667 31.334C22.6667 32.4386 23.5621 33.334 24.6667 33.334Z" fill="#0F1319"/>
        <path d="M28.6667 28C29.7713 28 30.6667 27.1046 30.6667 26C30.6667 24.8954 29.7713 24 28.6667 24C27.5621 24 26.6667 24.8954 26.6667 26C26.6667 27.1046 27.5621 28 28.6667 28Z" fill="#0F1319"/>
        <path d="M35.3333 28C36.4379 28 37.3333 27.1046 37.3333 26C37.3333 24.8954 36.4379 24 35.3333 24C34.2288 24 33.3333 24.8954 33.3333 26C33.3333 27.1046 34.2288 28 35.3333 28Z" fill="#0F1319"/>
        <path d="M39.3333 33.334C40.4379 33.334 41.3333 32.4386 41.3333 31.334C41.3333 30.2294 40.4379 29.334 39.3333 29.334C38.2288 29.334 37.3333 30.2294 37.3333 31.334C37.3333 32.4386 38.2288 33.334 39.3333 33.334Z" fill="#0F1319"/>
    </g>
    <defs>
        <clipPath id="clip0_601_3249">
            <rect width="32" height="32" fill="white" transform="translate(16 16)"/>
        </clipPath>
    </defs>
</svg>
