<svg width="64" height="64" viewBox="0 0 64 64" fill="none" xmlns="http://www.w3.org/2000/svg">
    <rect width="64" height="64" rx="32" fill="#FFB393"/>
    <g clip-path="url(#clip0_601_4465)">
        <path d="M30 38.8669L35.3066 35.8269C36.2 35.3203 36.2 34.0269 35.3066 33.5069L30 30.4669C29.1066 29.9603 28 30.6136 28 31.6269V37.6936C28 38.7203 29.1066 39.3736 30 38.8669ZM44 24.0003H33.88L37.8 20.0803C38.0666 19.8136 38.0666 19.4003 37.8 19.1336C37.5333 18.8669 37.12 18.8669 36.8533 19.1336L32 23.9869L27.1466 19.1336C26.88 18.8669 26.4666 18.8669 26.2 19.1336C25.9333 19.4003 25.9333 19.8136 26.2 20.0803L30.12 24.0003H20C18.5333 24.0003 17.3333 25.1869 17.3333 26.6669V42.6669C17.3333 44.1336 18.5333 45.3336 20 45.3336H44C45.4666 45.3336 46.6666 44.1336 46.6666 42.6669V26.6669C46.6666 25.1869 45.4666 24.0003 44 24.0003ZM42.6666 42.6669H21.3333C20.6 42.6669 20 42.0669 20 41.3336V28.0003C20 27.2669 20.6 26.6669 21.3333 26.6669H42.6666C43.4 26.6669 44 27.2669 44 28.0003V41.3336C44 42.0669 43.4 42.6669 42.6666 42.6669Z" fill="#0F1319"/>
    </g>
    <defs>
        <clipPath id="clip0_601_4465">
            <rect width="32" height="32" fill="white" transform="translate(16 16)"/>
        </clipPath>
    </defs>
</svg>
