<svg width="64" height="64" viewBox="0 0 64 64" fill="none" xmlns="http://www.w3.org/2000/svg">
    <rect width="64" height="64" rx="32" fill="#B2A3FA"/>
    <g clip-path="url(#clip0_601_2848)">
        <path d="M41.3333 19.9997H35.76C35.2 18.453 33.7333 17.333 32 17.333C30.2667 17.333 28.8 18.453 28.24 19.9997H22.6667C21.2 19.9997 20 21.1997 20 22.6663V41.333C20 42.7997 21.2 43.9997 22.6667 43.9997H41.3333C42.8 43.9997 44 42.7997 44 41.333V22.6663C44 21.1997 42.8 19.9997 41.3333 19.9997ZM32 19.6663C32.2933 19.6663 32.5467 19.7997 32.7333 19.9997C32.8933 20.173 33 20.413 33 20.6663C33 21.213 32.5467 21.6663 32 21.6663C31.4533 21.6663 31 21.213 31 20.6663C31 20.413 31.1067 20.173 31.2667 19.9997C31.4533 19.7997 31.7067 19.6663 32 19.6663ZM41.3333 41.333H22.6667V22.6663H41.3333V41.333ZM32 23.9997C29.8 23.9997 28 25.7997 28 27.9997C28 30.1997 29.8 31.9997 32 31.9997C34.2 31.9997 36 30.1997 36 27.9997C36 25.7997 34.2 23.9997 32 23.9997ZM32 29.333C31.2667 29.333 30.6667 28.733 30.6667 27.9997C30.6667 27.2663 31.2667 26.6663 32 26.6663C32.7333 26.6663 33.3333 27.2663 33.3333 27.9997C33.3333 28.733 32.7333 29.333 32 29.333ZM24 37.9597V39.9997H40V37.9597C40 34.6263 34.7067 33.1863 32 33.1863C29.2933 33.1863 24 34.613 24 37.9597ZM27.08 37.333C28 36.5863 30.2533 35.8397 32 35.8397C33.7467 35.8397 36.0133 36.5863 36.92 37.333H27.08Z" fill="#0F1319"/>
    </g>
    <defs>
        <clipPath id="clip0_601_2848">
            <rect width="32" height="32" fill="white" transform="translate(16 16)"/>
        </clipPath>
    </defs>
</svg>
