<svg width="64" height="64" viewBox="0 0 64 64" fill="none" xmlns="http://www.w3.org/2000/svg">
    <rect width="64" height="64" rx="32" fill="#FFE484"/>
    <g clip-path="url(#clip0_601_6741)">
        <path d="M46.6666 31.9867L43.4133 28.2667L43.8666 23.3467L39.0533 22.2533L36.5333 18L32 19.9467L27.4666 18L24.9466 22.2533L20.1333 23.3333L20.5866 28.2667L17.3333 31.9867L20.5866 35.7067L20.1333 40.64L24.9466 41.7333L27.4666 46L32 44.04L36.5333 45.9867L39.0533 41.7333L43.8666 40.64L43.4133 35.72L46.6666 31.9867ZM41.4 33.96L40.6533 34.8267L40.76 35.96L41 38.56L38.4666 39.1333L37.3466 39.3867L36.76 40.3733L35.44 42.6133L33.0666 41.5867L32 41.1333L30.9466 41.5867L28.5733 42.6133L27.2533 40.3867L26.6666 39.4L25.5466 39.1467L23.0133 38.5733L23.2533 35.96L23.36 34.8267L22.6133 33.96L20.8933 32L22.6133 30.0267L23.36 29.16L23.24 28.0133L23 25.4267L25.5333 24.8533L26.6533 24.6L27.24 23.6133L28.56 21.3733L30.9333 22.4L32 22.8533L33.0533 22.4L35.4266 21.3733L36.7466 23.6133L37.3333 24.6L38.4533 24.8533L40.9866 25.4267L40.7466 28.0267L40.64 29.16L41.3866 30.0267L43.1066 31.9867L41.4 33.96Z" fill="#0F1319"/>
        <path d="M29.4533 34.3322L26.36 31.2255L24.3867 33.2122L29.4533 38.2922L39.24 28.4789L37.2667 26.4922L29.4533 34.3322Z" fill="#0F1319"/>
    </g>
    <defs>
        <clipPath id="clip0_601_6741">
            <rect width="32" height="32" fill="white" transform="translate(16 16)"/>
        </clipPath>
    </defs>
</svg>
